<svg width="26" height="27" viewBox="0 0 26 27" fill="none" xmlns="http://www.w3.org/2000/svg">
<path d="M21.6332 20.8969C22.7614 19.4573 23.5461 17.7508 23.9208 15.9216C24.2956 14.0924 24.2494 12.1945 23.7862 10.3882C23.323 8.58197 22.4565 6.92061 21.2598 5.54466C20.0632 4.16872 18.5717 3.11868 16.9114 2.48336C15.2512 1.84805 13.4711 1.64615 11.7218 1.89476C9.97244 2.14336 8.30528 2.83515 6.86134 3.9116C5.4174 4.98805 4.23916 6.4175 3.4263 8.07901C2.61344 9.74053 2.18986 11.5852 2.19141 13.4571C2.19207 16.1782 3.09623 18.8122 4.74527 20.8969L4.72956 20.911C4.78455 20.981 4.84739 21.041 4.90395 21.1101C4.97465 21.196 5.05085 21.2768 5.12391 21.3601C5.34282 21.6139 5.57063 21.8555 5.80734 22.0849C5.88066 22.1538 5.95398 22.221 6.0273 22.2865C6.27868 22.517 6.53792 22.7342 6.80501 22.938C6.83957 22.963 6.87099 22.9955 6.90556 23.0213V23.0113C8.74538 24.3846 10.9403 25.1216 13.19 25.1216C15.4398 25.1216 17.6347 24.3846 19.4745 23.0113V23.0213C19.5091 22.9955 19.5397 22.963 19.5751 22.938C19.8422 22.7336 20.1014 22.5165 20.3528 22.2865C20.4261 22.2204 20.4994 22.1532 20.5727 22.0849C20.8089 21.8555 21.0367 21.6139 21.2562 21.3601C21.3292 21.2768 21.4046 21.196 21.4761 21.1101C21.5319 21.041 21.5955 20.981 21.6505 20.9102L21.6332 20.8969ZM13.1893 6.79211C13.8884 6.79211 14.5719 7.01199 15.1532 7.42394C15.7345 7.83589 16.1876 8.42142 16.4552 9.10646C16.7227 9.79151 16.7928 10.5453 16.6564 11.2726C16.52 11.9998 16.1833 12.6678 15.6889 13.1921C15.1945 13.7165 14.5646 14.0735 13.8789 14.2182C13.1932 14.3628 12.4824 14.2886 11.8365 14.0048C11.1905 13.7211 10.6384 13.2406 10.25 12.624C9.86156 12.0075 9.65423 11.2827 9.65423 10.5412C9.65423 9.54685 10.0267 8.59327 10.6896 7.89019C11.3526 7.1871 12.2517 6.79211 13.1893 6.79211ZM6.91027 20.8969C6.9239 19.803 7.34307 18.7587 8.07711 17.9901C8.81115 17.2214 9.80102 16.7901 10.8326 16.7896H15.5459C16.5775 16.7901 17.5674 17.2214 18.3014 17.9901C19.0354 18.7587 19.4546 19.803 19.4682 20.8969C17.7454 22.5434 15.5084 23.4546 13.1893 23.4546C10.8701 23.4546 8.63313 22.5434 6.91027 20.8969Z" fill="black"/>
</svg>
