<svg width="69" height="69" viewBox="0 0 69 69" fill="none" xmlns="http://www.w3.org/2000/svg">
<path d="M57.6775 53.7553C60.7742 50.0295 62.9279 45.6127 63.9566 40.8786C64.9852 36.1444 64.8585 31.2321 63.5871 26.5573C62.3158 21.8824 59.9372 17.5825 56.6526 14.0214C53.368 10.4602 49.274 7.74255 44.7169 6.09826C40.1598 4.45396 35.2738 3.93143 30.472 4.57485C25.6703 5.21828 21.0942 7.00874 17.1308 9.79476C13.1674 12.5808 9.9333 16.2804 7.70211 20.5807C5.47092 24.8809 4.30827 29.6553 4.31251 34.5C4.31432 41.5427 6.79612 48.3598 11.3225 53.7553L11.2794 53.792C11.4303 53.9731 11.6028 54.1283 11.758 54.3073C11.9521 54.5294 12.1613 54.7385 12.3618 54.9542C12.9627 55.6111 13.588 56.2364 14.2377 56.8301C14.439 57.0084 14.6402 57.1823 14.8415 57.3519C15.5315 57.9485 16.243 58.5105 16.9762 59.0381C17.071 59.1028 17.1573 59.1869 17.2522 59.2537V59.2279C22.3022 62.782 28.3268 64.6895 34.5022 64.6895C40.6775 64.6895 46.7021 62.782 51.7522 59.2279V59.2537C51.847 59.1869 51.9311 59.1028 52.0282 59.0381C52.7613 58.5091 53.4729 57.947 54.1629 57.3519C54.3641 57.1809 54.5654 57.0069 54.7666 56.8301C55.4149 56.2364 56.0402 55.6111 56.6425 54.9542C56.8431 54.7385 57.0501 54.5294 57.2463 54.3073C57.3994 54.1283 57.574 53.9731 57.725 53.7898L57.6775 53.7553ZM34.5 17.25C36.4191 17.25 38.2951 17.8191 39.8908 18.8853C41.4865 19.9514 42.7301 21.4669 43.4645 23.2399C44.1989 25.0129 44.3911 26.9639 44.0167 28.8461C43.6423 30.7283 42.7182 32.4572 41.3612 33.8143C40.0042 35.1713 38.2752 36.0954 36.393 36.4698C34.5108 36.8442 32.5598 36.652 30.7868 35.9176C29.0138 35.1832 27.4984 33.9395 26.4322 32.3439C25.366 30.7482 24.7969 28.8722 24.7969 26.9531C24.7969 24.3797 25.8192 21.9117 27.6389 20.092C29.4586 18.2723 31.9266 17.25 34.5 17.25ZM17.2651 53.7553C17.3025 50.9241 18.4531 48.2214 20.4679 46.232C22.4827 44.2426 25.1998 43.1264 28.0313 43.125H40.9688C43.8002 43.1264 46.5173 44.2426 48.5321 46.232C50.5469 48.2214 51.6975 50.9241 51.7349 53.7553C47.0059 58.0168 40.8658 60.3751 34.5 60.3751C28.1342 60.3751 21.9941 58.0168 17.2651 53.7553Z" fill="black"/>
</svg>
