<svg width="26" height="27" viewBox="0 0 26 27" fill="none" xmlns="http://www.w3.org/2000/svg">
<path d="M21.6342 20.8966C22.7624 19.4571 23.547 17.7505 23.9218 15.9214C24.2965 14.0922 24.2504 12.1942 23.7872 10.388C23.324 8.58173 22.4574 6.92036 21.2608 5.54442C20.0642 4.16847 18.5726 3.11843 16.9124 2.48312C15.2522 1.8478 13.4721 1.64591 11.7228 1.89451C9.97342 2.14312 8.30626 2.83491 6.86232 3.91136C5.41838 4.98781 4.24014 6.41725 3.42728 8.07877C2.61442 9.74029 2.19084 11.585 2.19239 13.4568C2.19305 16.178 3.09721 18.8119 4.74624 20.8966L4.73053 20.9108C4.78552 20.9808 4.84837 21.0408 4.90493 21.1099C4.97563 21.1957 5.05183 21.2765 5.12488 21.3598C5.34379 21.6137 5.57161 21.8553 5.80832 22.0847C5.88164 22.1535 5.95496 22.2207 6.02828 22.2863C6.27966 22.5168 6.53889 22.7339 6.80598 22.9378C6.84055 22.9628 6.87197 22.9953 6.90654 23.0211V23.0111C8.74636 24.3843 10.9412 25.1213 13.191 25.1213C15.4408 25.1213 17.6357 24.3843 19.4755 23.0111V23.0211C19.5101 22.9953 19.5407 22.9628 19.5761 22.9378C19.8431 22.7334 20.1024 22.5162 20.3538 22.2863C20.4271 22.2202 20.5004 22.153 20.5737 22.0847C20.8099 21.8553 21.0377 21.6137 21.2572 21.3598C21.3302 21.2765 21.4056 21.1957 21.4771 21.1099C21.5329 21.0408 21.5965 20.9808 21.6515 20.91L21.6342 20.8966ZM13.1902 6.79187C13.8894 6.79187 14.5729 7.01175 15.1542 7.4237C15.7355 7.83565 16.1886 8.42117 16.4562 9.10622C16.7237 9.79127 16.7937 10.5451 16.6573 11.2723C16.5209 11.9996 16.1843 12.6676 15.6899 13.1919C15.1955 13.7162 14.5656 14.0733 13.8799 14.2179C13.1942 14.3626 12.4834 14.2883 11.8374 14.0046C11.1915 13.7208 10.6394 13.2403 10.251 12.6238C9.86254 12.0073 9.65521 11.2824 9.65521 10.5409C9.65521 9.54661 10.0276 8.59302 10.6906 7.88994C11.3535 7.18686 12.2527 6.79187 13.1902 6.79187ZM6.91125 20.8966C6.92488 19.8027 7.34405 18.7585 8.07809 17.9898C8.81212 17.2212 9.802 16.7899 10.8336 16.7893H15.5469C16.5785 16.7899 17.5683 17.2212 18.3024 17.9898C19.0364 18.7585 19.4556 19.8027 19.4692 20.8966C17.7464 22.5431 15.5094 23.4544 13.1902 23.4544C10.8711 23.4544 8.63411 22.5431 6.91125 20.8966Z" fill="black"/>
</svg>
