<svg width="16" height="18" viewBox="0 0 16 18" fill="none" xmlns="http://www.w3.org/2000/svg">
<path d="M7.69246 2.69189H3.15789C2.81428 2.69189 2.48474 2.85456 2.24177 3.1441C1.9988 3.43364 1.8623 3.82634 1.8623 4.23581V15.0432C1.8623 15.4527 1.9988 15.8454 2.24177 16.1349C2.48474 16.4245 2.81428 16.5871 3.15789 16.5871H12.227C12.5706 16.5871 12.9002 16.4245 13.1431 16.1349C13.3861 15.8454 13.5226 15.4527 13.5226 15.0432V9.63951" stroke="black" stroke-opacity="0.28" stroke-width="2" stroke-linecap="round" stroke-linejoin="round"/>
<path d="M12.5509 1.53383C12.8086 1.22673 13.1581 1.0542 13.5226 1.0542C13.887 1.0542 14.2365 1.22673 14.4943 1.53383C14.752 1.84094 14.8967 2.25746 14.8967 2.69177C14.8967 3.12608 14.752 3.5426 14.4943 3.8497L8.3402 11.1833L5.74902 11.9553L6.39682 8.86743L12.5509 1.53383Z" stroke="black" stroke-opacity="0.28" stroke-width="2" stroke-linecap="round" stroke-linejoin="round"/>
</svg>
