<svg width="16" height="18" viewBox="0 0 16 18" fill="none" xmlns="http://www.w3.org/2000/svg">
<path d="M6.83015 2.68555H2.29559C1.95198 2.68555 1.62244 2.84792 1.37947 3.13694C1.1365 3.42597 1 3.81797 1 4.22671V15.0148C1 15.4236 1.1365 15.8156 1.37947 16.1046C1.62244 16.3936 1.95198 16.556 2.29559 16.556H11.3647C11.7083 16.556 12.0379 16.3936 12.2808 16.1046C12.5238 15.8156 12.6603 15.4236 12.6603 15.0148V9.62078" stroke="black" stroke-opacity="0.28" stroke-width="2" stroke-linecap="round" stroke-linejoin="round"/>
<path d="M11.6886 1.52956C11.9463 1.223 12.2958 1.05078 12.6603 1.05078C13.0247 1.05078 13.3742 1.223 13.6319 1.52956C13.8897 1.83612 14.0344 2.2519 14.0344 2.68543C14.0344 3.11897 13.8897 3.53475 13.6319 3.8413L7.4779 11.1618L4.88672 11.9324L5.53451 8.85008L11.6886 1.52956Z" stroke="black" stroke-opacity="0.28" stroke-width="2" stroke-linecap="round" stroke-linejoin="round"/>
</svg>
