<svg width="17" height="20" viewBox="0 0 17 20" fill="none" xmlns="http://www.w3.org/2000/svg">
<path d="M11.3337 13.136C11.5072 13.136 11.6746 13.2099 11.8043 13.3435C11.9339 13.4771 12.0167 13.6613 12.037 13.861L12.042 13.957V17.2411C12.042 17.4421 11.9783 17.6362 11.863 17.7865C11.7477 17.9368 11.5888 18.0328 11.4165 18.0563L11.3337 18.0621H5.66699C5.4935 18.062 5.32605 17.9882 5.1964 17.8546C5.06675 17.721 4.98392 17.5368 4.96362 17.3371L4.95866 17.2411V13.957C4.95868 13.7559 5.02238 13.5618 5.13767 13.4116C5.25295 13.2613 5.41181 13.1653 5.58412 13.1418L5.66699 13.136H11.3337ZM13.4587 5.74695C14.0222 5.74695 14.5627 6.00644 14.9613 6.46835C15.3598 6.93025 15.5837 7.55673 15.5837 8.20997V13.957C15.5837 14.3925 15.4344 14.8102 15.1687 15.1181C14.9031 15.426 14.5427 15.599 14.167 15.599H13.4587V13.136C13.4587 12.7005 13.3094 12.2829 13.0437 11.9749C12.7781 11.667 12.4177 11.494 12.042 11.494H4.95866C4.58294 11.494 4.2226 11.667 3.95692 11.9749C3.69125 12.2829 3.54199 12.7005 3.54199 13.136V15.599H2.83366C2.45794 15.599 2.0976 15.426 1.83192 15.1181C1.56625 14.8102 1.41699 14.3925 1.41699 13.957V8.20997C1.41699 7.55673 1.64088 6.93025 2.03939 6.46835C2.43791 6.00644 2.97841 5.74695 3.54199 5.74695H13.4587ZM12.042 7.38896H10.6253C10.4448 7.38919 10.2711 7.46932 10.1399 7.61297C10.0086 7.75662 9.92958 7.95295 9.919 8.16185C9.90841 8.37075 9.96705 8.57645 10.0829 8.73692C10.1988 8.89739 10.3632 9.00051 10.5425 9.02523L10.6253 9.03098H12.042C12.2225 9.03074 12.3962 8.95062 12.5275 8.80697C12.6587 8.66331 12.7377 8.46698 12.7483 8.25808C12.7589 8.04919 12.7003 7.84349 12.5844 7.68302C12.4685 7.52255 12.3041 7.41942 12.1249 7.39471L12.042 7.38896ZM12.042 1.64191C12.2299 1.64191 12.41 1.72841 12.5429 1.88237C12.6757 2.03634 12.7503 2.24517 12.7503 2.46291V4.10493H4.25033V2.46291C4.25033 2.24517 4.32495 2.03634 4.45779 1.88237C4.59063 1.72841 4.7708 1.64191 4.95866 1.64191H12.042Z" fill="white"/>
</svg>
