<svg width="19" height="16" viewBox="0 0 19 16" fill="none" xmlns="http://www.w3.org/2000/svg">
<path d="M18.7491 10.0337L17.2819 9.03366C17.3513 8.69435 17.3872 8.3479 17.3872 8.00145C17.3872 7.655 17.3513 7.30854 17.2819 6.96923L18.7491 5.96916C18.8598 5.89363 18.939 5.79304 18.9762 5.68075C19.0134 5.56846 19.0069 5.4498 18.9574 5.34055L18.9373 5.29412C18.5334 4.3941 17.9285 3.55977 17.152 2.83145L17.1116 2.79394C17.0174 2.70564 16.8919 2.64216 16.7515 2.61187C16.6112 2.58159 16.4626 2.58592 16.3254 2.62429L14.5042 3.1404C13.8322 2.70108 13.0818 2.35463 12.2709 2.11175L11.9192 0.593791C11.8927 0.479573 11.8232 0.374495 11.72 0.292516C11.6168 0.210538 11.4847 0.155541 11.3413 0.134831L11.2808 0.125902C10.1138 -0.0419672 8.88623 -0.0419672 7.71917 0.125902L7.65869 0.134831C7.51532 0.155541 7.38325 0.210538 7.28002 0.292516C7.17679 0.374495 7.10729 0.479573 7.08076 0.593791L6.72684 2.1189C5.92242 2.36183 5.1733 2.7081 4.5092 3.14397L2.67461 2.62429C2.53744 2.58561 2.38876 2.58113 2.24832 2.61143C2.10788 2.64173 1.98233 2.70539 1.88836 2.79394L1.84803 2.83145C1.07241 3.56029 0.467661 4.39447 0.0627256 5.29412L0.0425652 5.34055C-0.0582365 5.56378 0.024645 5.8138 0.250889 5.96916L1.73603 6.97995C1.66659 7.31569 1.63299 7.65857 1.63299 7.99966C1.63299 8.34254 1.66659 8.68542 1.73603 9.01938L0.250889 10.0302C0.140221 10.1057 0.0610152 10.2063 0.0238026 10.3186C-0.0134099 10.4309 -0.00686572 10.5495 0.0425652 10.6588L0.0627256 10.7052C0.468172 11.6053 1.0685 12.4357 1.84803 13.1679L1.88836 13.2054C1.98256 13.2937 2.10811 13.3572 2.24847 13.3875C2.38883 13.4177 2.5374 13.4134 2.67461 13.375L4.5092 12.8554C5.17673 13.2929 5.92266 13.6393 6.72684 13.8804L7.08076 15.4055C7.10729 15.5198 7.17679 15.6248 7.28002 15.7068C7.38325 15.7888 7.51532 15.8438 7.65869 15.8645L7.71917 15.8734C8.89695 16.0422 10.103 16.0422 11.2808 15.8734L11.3413 15.8645C11.4847 15.8438 11.6168 15.7888 11.72 15.7068C11.8232 15.6248 11.8927 15.5198 11.9192 15.4055L12.2709 13.8876C13.0815 13.6453 13.8361 13.2978 14.5042 12.8589L16.3254 13.375C16.4626 13.4137 16.6112 13.4182 16.7517 13.3879C16.8921 13.3576 17.0177 13.2939 17.1116 13.2054L17.152 13.1679C17.9315 12.4339 18.5318 11.6053 18.9373 10.7052L18.9574 10.6588C19.0582 10.4391 18.9754 10.1891 18.7491 10.0337ZM15.6915 7.17996C15.7475 7.44962 15.7766 7.72643 15.7766 8.00323C15.7766 8.28004 15.7475 8.55684 15.6915 8.8265L15.5436 9.54263L17.2169 10.6838C16.9633 11.1497 16.6431 11.5907 16.2627 11.9982L14.1839 11.4106L13.4805 11.8714C12.9452 12.2214 12.3493 12.4964 11.7042 12.6893L10.8507 12.9446L10.4498 14.6769C9.81712 14.7341 9.1784 14.7341 8.54574 14.6769L8.14478 12.9411L7.29804 12.6821C6.65963 12.4893 6.06602 12.2142 5.53514 11.866L4.83176 11.4035L2.73957 11.9964C2.35876 11.5874 2.04068 11.1463 1.78531 10.682L3.47654 9.53013L3.33094 8.81579C3.27718 8.5497 3.24806 8.27468 3.24806 8.00323C3.24806 7.73 3.27494 7.45677 3.33094 7.19068L3.47654 6.47634L1.78531 5.32448C2.03844 4.85837 2.35876 4.41906 2.73957 4.0101L4.83176 4.603L5.53514 4.14047C6.06602 3.79223 6.65963 3.51721 7.29804 3.32434L8.14702 3.06896L8.54799 1.33313C9.17743 1.27598 9.82033 1.27598 10.452 1.33313L10.853 3.06539L11.7064 3.32077C12.3493 3.51364 12.9474 3.78866 13.4828 4.13868L14.1862 4.59943L16.2649 4.01189C16.6457 4.42084 16.9638 4.86194 17.2192 5.32626L15.5459 6.46741L15.6915 7.17996ZM9.50224 4.68157C7.32492 4.68157 5.55978 6.08882 5.55978 7.82465C5.55978 9.56048 7.32492 10.9677 9.50224 10.9677C11.6796 10.9677 13.4447 9.56048 13.4447 7.82465C13.4447 6.08882 11.6796 4.68157 9.50224 4.68157ZM11.2764 9.23903C11.0437 9.42508 10.7671 9.57261 10.4627 9.67313C10.1582 9.77366 9.83179 9.8252 9.50224 9.82479C8.83247 9.82479 8.20302 9.61585 7.72813 9.23903C7.49477 9.05352 7.30972 8.83306 7.18363 8.59033C7.05754 8.34759 6.99289 8.08738 6.9934 7.82465C6.9934 7.29068 7.25548 6.78886 7.72813 6.41027C8.20302 6.03167 8.83247 5.82451 9.50224 5.82451C10.172 5.82451 10.8015 6.03167 11.2764 6.41027C11.5097 6.59578 11.6948 6.81624 11.8209 7.05897C11.9469 7.30171 12.0116 7.56192 12.0111 7.82465C12.0111 8.35862 11.749 8.86044 11.2764 9.23903Z" fill="#FEFEFE"/>
</svg>
