<svg width="26" height="21" viewBox="0 0 26 21" fill="none" xmlns="http://www.w3.org/2000/svg">
<path d="M17.0118 15.4086C15.1473 16.6369 12.8014 17.216 10.4517 17.028C8.10188 16.84 5.92481 15.8991 4.36362 14.3968C2.80242 12.8945 1.97445 10.9437 2.04824 8.94155C2.12203 6.93938 3.09203 5.03633 4.7608 3.61977C6.42986 2.20346 8.67212 1.3802 11.0312 1.31757C13.3902 1.25495 15.6887 1.95766 17.4588 3.28268C19.2289 4.60769 20.3375 6.45541 20.559 8.44971C20.7805 10.444 20.0982 12.435 18.651 14.0174L23.3522 18.0074C23.5049 18.1277 23.6165 18.2808 23.6753 18.4504C23.7341 18.62 23.7379 18.8 23.6863 18.9713C23.6346 19.1426 23.5295 19.2989 23.382 19.4238C23.2345 19.5487 23.0501 19.6375 22.8481 19.6808C22.6465 19.7246 22.4347 19.7214 22.235 19.6718C22.0353 19.6221 21.855 19.5278 21.713 19.3986L17.0118 15.4086ZM18.2799 9.1874C18.2936 8.40463 18.1238 7.62735 17.7804 6.90078C17.437 6.17421 16.9267 5.51286 16.2794 4.95518C15.632 4.39751 14.8605 3.95465 14.0096 3.65237C13.1587 3.35009 12.2456 3.19443 11.3232 3.19443C10.4008 3.19443 9.48757 3.35009 8.63671 3.65237C7.78585 3.95465 7.0143 4.39751 6.36694 4.95518C5.71959 5.51286 5.20935 6.17421 4.86592 6.90078C4.52248 7.62735 4.3527 8.40463 4.36645 9.1874C4.3937 10.7381 5.13862 12.2174 6.44029 13.3058C7.74196 14.3942 9.49589 15.0043 11.3232 15.0043C13.1504 15.0043 14.9044 14.3942 16.206 13.3058C17.5077 12.2174 18.2526 10.7381 18.2799 9.1874Z" fill="#777171"/>
</svg>
