<svg width="68" height="68" viewBox="0 0 68 68" fill="none" xmlns="http://www.w3.org/2000/svg">
<path d="M35.2415 45.8487C35.7244 46.3048 35.9957 46.9233 35.9957 47.5683C35.9957 48.2132 35.7244 48.8317 35.2415 49.2878C34.7586 49.7438 34.1037 50 33.4208 50C32.7379 50 32.0829 49.7438 31.6 49.2878L18 36.44L4.3957 49.2837C3.91281 49.7398 3.25786 49.996 2.57494 49.996C1.89203 49.996 1.23708 49.7398 0.754184 49.2837C0.271288 48.8277 7.19571e-09 48.2091 0 47.5642C-7.19571e-09 46.9193 0.271288 46.3007 0.754184 45.8447L14.3585 33.001L0.758467 20.1533C0.275572 19.6972 0.00428423 19.0787 0.00428424 18.4338C0.00428425 17.7888 0.275572 17.1703 0.758467 16.7143C1.24136 16.2582 1.89631 16.002 2.57923 16.002C3.26215 16.002 3.91709 16.2582 4.39999 16.7143L18 29.562L31.6043 16.7122C32.0872 16.2562 32.7421 16 33.4251 16C34.108 16 34.7629 16.2562 35.2458 16.7122C35.7287 17.1683 36 17.7868 36 18.4317C36 19.0767 35.7287 19.6952 35.2458 20.1513L21.6415 33.001L35.2415 45.8487Z" fill="white"/>
</svg>
