<svg width="54" height="56" viewBox="0 0 54 56" fill="none" xmlns="http://www.w3.org/2000/svg">
<path d="M27.9859 37.7576C28.3694 38.1332 28.5848 38.6425 28.5848 39.1737C28.5848 39.7048 28.3694 40.2142 27.9859 40.5897C27.6024 40.9653 27.0823 41.1763 26.54 41.1763C25.9977 41.1763 25.4776 40.9653 25.0941 40.5897L14.2941 30.0092L3.49071 40.5864C3.10723 40.9619 2.58713 41.1729 2.04481 41.1729C1.50249 41.1729 0.982387 40.9619 0.598911 40.5864C0.215435 40.2108 5.71424e-09 39.7014 0 39.1703C-5.71424e-09 38.6392 0.215435 38.1298 0.598911 37.7543L11.4023 27.1771L0.602312 16.5966C0.218836 16.221 0.00340219 15.7117 0.00340219 15.1806C0.0034022 14.6494 0.218836 14.1401 0.602312 13.7645C0.985788 13.3889 1.50589 13.1779 2.04821 13.1779C2.59053 13.1779 3.11063 13.3889 3.49411 13.7645L14.2941 24.345L25.0975 13.7628C25.481 13.3873 26.0011 13.1763 26.5434 13.1763C27.0857 13.1763 27.6058 13.3873 27.9893 13.7628C28.3728 14.1384 28.5882 14.6478 28.5882 15.1789C28.5882 15.71 28.3728 16.2194 27.9893 16.5949L17.1859 27.1771L27.9859 37.7576Z" fill="white"/>
</svg>
