<svg width="27" height="26" viewBox="0 0 27 26" fill="none" xmlns="http://www.w3.org/2000/svg">
<g clip-path="url(#clip0_3019_2623)">
<path fill-rule="evenodd" clip-rule="evenodd" d="M11.026 3.73529C11.4545 3.33749 11.9869 3.04982 12.5711 2.90042C13.1552 2.75102 13.7711 2.74502 14.3585 2.88299C14.9459 3.02096 15.4847 3.29818 15.9221 3.68753C16.3595 4.07688 16.6806 4.56502 16.854 5.1042H10.146C10.3124 4.58712 10.6149 4.11667 11.026 3.73529ZM7.078 5.1042C7.31739 3.68206 8.09608 2.38617 9.27363 1.45026C10.4512 0.514341 11.9501 0 13.5 0C15.0499 0 16.5488 0.514341 17.7264 1.45026C18.9039 2.38617 19.6826 3.68206 19.922 5.1042H25.5C25.8978 5.1042 26.2794 5.25096 26.5607 5.51221C26.842 5.77346 27 6.12779 27 6.49725C27 6.86671 26.842 7.22104 26.5607 7.48229C26.2794 7.74354 25.8978 7.8903 25.5 7.8903H23.5V23.2139C23.5 23.9528 23.1839 24.6615 22.6213 25.184C22.0587 25.7065 21.2956 26 20.5 26H6.5C5.70435 26 4.94129 25.7065 4.37868 25.184C3.81607 24.6615 3.5 23.9528 3.5 23.2139V7.8903H1.5C1.30302 7.8903 1.10796 7.85427 0.925975 7.78426C0.743986 7.71426 0.578628 7.61164 0.43934 7.48229C0.300052 7.35293 0.189563 7.19936 0.114181 7.03035C0.0387987 6.86133 0 6.68019 0 6.49725C0 6.31431 0.0387987 6.13316 0.114181 5.96415C0.189563 5.79514 0.300052 5.64157 0.43934 5.51221C0.578628 5.38285 0.743986 5.28024 0.925975 5.21024C1.10796 5.14023 1.30302 5.1042 1.5 5.1042H7.078ZM9.5 10.9104C10.19 10.9104 10.75 11.4305 10.75 12.0713V19.5047C10.75 19.8125 10.6183 20.1078 10.3839 20.3255C10.1495 20.5432 9.83152 20.6655 9.5 20.6655C9.16848 20.6655 8.85054 20.5432 8.61612 20.3255C8.3817 20.1078 8.25 19.8125 8.25 19.5047V12.0713C8.25 11.4305 8.81 10.9104 9.5 10.9104ZM18.75 12.0713C18.75 11.7634 18.6183 11.4682 18.3839 11.2505C18.1495 11.0327 17.8315 10.9104 17.5 10.9104C17.1685 10.9104 16.8505 11.0327 16.6161 11.2505C16.3817 11.4682 16.25 11.7634 16.25 12.0713V19.5047C16.25 19.8125 16.3817 20.1078 16.6161 20.3255C16.8505 20.5432 17.1685 20.6655 17.5 20.6655C17.8315 20.6655 18.1495 20.5432 18.3839 20.3255C18.6183 20.1078 18.75 19.8125 18.75 19.5047V12.0713Z" fill="black"/>
</g>
<defs>
<clipPath id="clip0_3019_2623">
<rect width="27" height="26" fill="white"/>
</clipPath>
</defs>
</svg>
