<svg width="14" height="14" viewBox="0 0 14 14" fill="none" xmlns="http://www.w3.org/2000/svg">
<g clip-path="url(#clip0_3719_984)">
<path fill-rule="evenodd" clip-rule="evenodd" d="M5.71719 1.99879C5.93938 1.801 6.21543 1.65797 6.51833 1.58369C6.82122 1.50941 7.14058 1.50642 7.44515 1.57502C7.74973 1.64362 8.02909 1.78146 8.25591 1.97504C8.48272 2.16863 8.64922 2.41133 8.73911 2.67941H5.26089C5.34718 2.42232 5.504 2.18841 5.71719 1.99879ZM3.67007 2.67941C3.7942 1.97232 4.19797 1.32801 4.80855 0.86267C5.41913 0.397332 6.19634 0.141602 7 0.141602C7.80366 0.141602 8.58087 0.397332 9.19145 0.86267C9.80203 1.32801 10.2058 1.97232 10.3299 2.67941H13.2222C13.4285 2.67941 13.6263 2.75238 13.7722 2.88227C13.9181 3.01217 14 3.18834 14 3.37203C14 3.55573 13.9181 3.7319 13.7722 3.86179C13.6263 3.99169 13.4285 4.06466 13.2222 4.06466H12.1852V11.6835C12.1852 12.0509 12.0213 12.4033 11.7296 12.6631C11.4379 12.9229 11.0422 13.0688 10.6296 13.0688H3.37037C2.95781 13.0688 2.56215 12.9229 2.27043 12.6631C1.9787 12.4033 1.81481 12.0509 1.81481 11.6835V4.06466H0.777778C0.675639 4.06466 0.574499 4.04674 0.480135 4.01194C0.385771 3.97713 0.300029 3.92611 0.227806 3.86179C0.155582 3.79748 0.0982918 3.72112 0.0592048 3.63709C0.0201178 3.55306 0 3.46299 0 3.37203C0 3.28108 0.0201178 3.19101 0.0592048 3.10698C0.0982918 3.02294 0.155582 2.94659 0.227806 2.88227C0.300029 2.81796 0.385771 2.76694 0.480135 2.73213C0.574499 2.69732 0.675639 2.67941 0.777778 2.67941H3.67007ZM4.92593 5.56627C5.2837 5.56627 5.57407 5.82485 5.57407 6.14346V9.83932C5.57407 9.9924 5.50579 10.1392 5.38424 10.2475C5.26268 10.3557 5.09783 10.4165 4.92593 10.4165C4.75403 10.4165 4.58917 10.3557 4.46762 10.2475C4.34606 10.1392 4.27778 9.9924 4.27778 9.83932V6.14346C4.27778 5.82485 4.56815 5.56627 4.92593 5.56627ZM9.72222 6.14346C9.72222 5.99038 9.65394 5.84357 9.53238 5.73533C9.41083 5.62708 9.24597 5.56627 9.07407 5.56627C8.90217 5.56627 8.73731 5.62708 8.61576 5.73533C8.49421 5.84357 8.42593 5.99038 8.42593 6.14346V9.83932C8.42593 9.9924 8.49421 10.1392 8.61576 10.2475C8.73731 10.3557 8.90217 10.4165 9.07407 10.4165C9.24597 10.4165 9.41083 10.3557 9.53238 10.2475C9.65394 10.1392 9.72222 9.9924 9.72222 9.83932V6.14346Z" fill="white"/>
</g>
<defs>
<clipPath id="clip0_3719_984">
<rect width="14" height="12.9272" fill="white" transform="translate(0 0.141602)"/>
</clipPath>
</defs>
</svg>
