<svg width="14" height="14" viewBox="0 0 14 14" fill="none" xmlns="http://www.w3.org/2000/svg">
<g clip-path="url(#clip0_2517_210)">
<path fill-rule="evenodd" clip-rule="evenodd" d="M5.71719 2.01131C5.93938 1.79711 6.21543 1.64221 6.51833 1.56177C6.82122 1.48132 7.14058 1.47809 7.44515 1.55238C7.74973 1.62667 8.02909 1.77594 8.25591 1.98559C8.48272 2.19524 8.64922 2.45809 8.73911 2.74841H5.26089C5.34718 2.46999 5.504 2.21667 5.71719 2.01131ZM3.67007 2.74841C3.7942 1.98265 4.19797 1.28486 4.80855 0.780908C5.41913 0.276953 6.19634 0 7 0C7.80366 0 8.58086 0.276953 9.19145 0.780908C9.80203 1.28486 10.2058 1.98265 10.3299 2.74841H13.2222C13.4285 2.74841 13.6263 2.82744 13.7722 2.96811C13.9181 3.10879 14 3.29958 14 3.49852C14 3.69746 13.9181 3.88825 13.7722 4.02892C13.6263 4.1696 13.4285 4.24862 13.2222 4.24862H12.1852V12.4998C12.1852 12.8977 12.0213 13.2793 11.7296 13.5606C11.4378 13.8419 11.0422 14 10.6296 14H3.37037C2.95781 14 2.56215 13.8419 2.27043 13.5606C1.9787 13.2793 1.81481 12.8977 1.81481 12.4998V4.24862H0.777778C0.675638 4.24862 0.574499 4.22922 0.480135 4.19153C0.385771 4.15383 0.300029 4.09858 0.227806 4.02892C0.155582 3.95927 0.0982918 3.87658 0.0592048 3.78557C0.0201178 3.69456 0 3.59702 0 3.49852C0 3.40001 0.0201178 3.30247 0.0592048 3.21147C0.0982918 3.12046 0.155582 3.03777 0.227806 2.96811C0.300029 2.89846 0.385771 2.84321 0.480135 2.80551C0.574499 2.76781 0.675638 2.74841 0.777778 2.74841H3.67007ZM4.92593 5.87485C5.2837 5.87485 5.57407 6.15489 5.57407 6.49994V10.5025C5.57407 10.6683 5.50579 10.8273 5.38424 10.9445C5.26268 11.0617 5.09783 11.1276 4.92593 11.1276C4.75403 11.1276 4.58917 11.0617 4.46762 10.9445C4.34606 10.8273 4.27778 10.6683 4.27778 10.5025V6.49994C4.27778 6.15489 4.56815 5.87485 4.92593 5.87485ZM9.72222 6.49994C9.72222 6.33416 9.65394 6.17516 9.53238 6.05794C9.41083 5.94071 9.24597 5.87485 9.07407 5.87485C8.90217 5.87485 8.73732 5.94071 8.61576 6.05794C8.49421 6.17516 8.42593 6.33416 8.42593 6.49994V10.5025C8.42593 10.6683 8.49421 10.8273 8.61576 10.9445C8.73732 11.0617 8.90217 11.1276 9.07407 11.1276C9.24597 11.1276 9.41083 11.0617 9.53238 10.9445C9.65394 10.8273 9.72222 10.6683 9.72222 10.5025V6.49994Z" fill="white"/>
</g>
<defs>
<clipPath id="clip0_2517_210">
<rect width="14" height="14" fill="white"/>
</clipPath>
</defs>
</svg>
