<svg width="19" height="14" viewBox="0 0 19 14" fill="none" xmlns="http://www.w3.org/2000/svg">
<g clip-path="url(#clip0_3719_1776)">
<path fill-rule="evenodd" clip-rule="evenodd" d="M7.93845 2.41295C8.21123 2.21502 8.55012 2.07189 8.92195 1.99755C9.29379 1.92321 9.68584 1.92022 10.0597 1.98887C10.4336 2.05752 10.7766 2.19546 11.055 2.38919C11.3335 2.58292 11.5379 2.82581 11.6482 3.09408H7.3783C7.48423 2.8368 7.67674 2.60272 7.93845 2.41295ZM5.42538 3.09408C5.57776 2.38647 6.07343 1.74167 6.823 1.27599C7.57256 0.810304 8.52668 0.554382 9.51326 0.554382C10.4999 0.554382 11.454 0.810304 12.2035 1.27599C12.9531 1.74167 13.4488 2.38647 13.6011 3.09408H17.1518C17.405 3.09408 17.6479 3.16711 17.8269 3.2971C18.006 3.42709 18.1066 3.60339 18.1066 3.78723C18.1066 3.97106 18.006 4.14736 17.8269 4.27735C17.6479 4.40734 17.405 4.48037 17.1518 4.48037H15.8787V12.105C15.8787 12.4726 15.6775 12.8252 15.3194 13.0852C14.9613 13.3452 14.4755 13.4912 13.9691 13.4912H5.05746C4.55099 13.4912 4.06527 13.3452 3.70714 13.0852C3.34902 12.8252 3.14783 12.4726 3.14783 12.105V4.48037H1.87474C1.74935 4.48037 1.62519 4.46244 1.50935 4.42761C1.3935 4.39278 1.28824 4.34172 1.19958 4.27735C1.11092 4.21299 1.04059 4.13658 0.992603 4.05248C0.944619 3.96839 0.919922 3.87825 0.919922 3.78723C0.919922 3.6962 0.944619 3.60607 0.992603 3.52197C1.04059 3.43788 1.11092 3.36147 1.19958 3.2971C1.28824 3.23274 1.3935 3.18168 1.50935 3.14685C1.62519 3.11201 1.74935 3.09408 1.87474 3.09408H5.42538ZM6.96709 5.98311C7.4063 5.98311 7.76277 6.24188 7.76277 6.56073V10.2593C7.76277 10.4125 7.67894 10.5595 7.52972 10.6678C7.3805 10.7761 7.17812 10.837 6.96709 10.837C6.75606 10.837 6.55368 10.7761 6.40446 10.6678C6.25524 10.5595 6.17141 10.4125 6.17141 10.2593V6.56073C6.17141 6.24188 6.52787 5.98311 6.96709 5.98311ZM12.8551 6.56073C12.8551 6.40753 12.7713 6.26061 12.6221 6.15229C12.4729 6.04396 12.2705 5.98311 12.0594 5.98311C11.8484 5.98311 11.646 6.04396 11.4968 6.15229C11.3476 6.26061 11.2638 6.40753 11.2638 6.56073V10.2593C11.2638 10.4125 11.3476 10.5595 11.4968 10.6678C11.646 10.7761 11.8484 10.837 12.0594 10.837C12.2705 10.837 12.4729 10.7761 12.6221 10.6678C12.7713 10.5595 12.8551 10.4125 12.8551 10.2593V6.56073Z" fill="white"/>
</g>
<defs>
<clipPath id="clip0_3719_1776">
<rect width="17.1867" height="12.9369" fill="white" transform="translate(0.919922 0.554382)"/>
</clipPath>
</defs>
</svg>
