<svg width="23" height="19" viewBox="0 0 23 19" fill="none" xmlns="http://www.w3.org/2000/svg">
<path d="M15.5159 14.4086C13.6515 15.6369 11.3056 16.216 8.95581 16.028C6.60603 15.84 4.42896 14.8991 2.86777 13.3968C1.30658 11.8945 0.478603 9.94371 0.552392 7.94155C0.62618 5.93938 1.59618 4.03633 3.26495 2.61977C4.93401 1.20346 7.17627 0.380199 9.53532 0.317574C11.8944 0.254948 14.1929 0.957663 15.963 2.28268C17.733 3.60769 18.8417 5.45541 19.0632 7.44971C19.2846 9.44401 18.6024 11.435 17.1552 13.0174L21.8564 17.0074C22.009 17.1277 22.1207 17.2808 22.1794 17.4504C22.2382 17.62 22.242 17.8 22.1904 17.9713C22.1388 18.1426 22.0337 18.2989 21.8862 18.4238C21.7387 18.5487 21.5542 18.6375 21.3522 18.6808C21.1506 18.7246 20.9388 18.7214 20.7391 18.6718C20.5394 18.6221 20.3591 18.5278 20.2171 18.3986L15.5159 14.4086ZM16.784 8.1874C16.7978 7.40463 16.628 6.62735 16.2846 5.90078C15.9411 5.17421 15.4309 4.51286 14.7835 3.95518C14.1362 3.39751 13.3646 2.95465 12.5138 2.65237C11.6629 2.35009 10.7497 2.19443 9.82731 2.19443C8.90491 2.19443 7.99172 2.35009 7.14086 2.65237C6.29 2.95465 5.51845 3.39751 4.87109 3.95518C4.22374 4.51286 3.7135 5.17421 3.37007 5.90078C3.02663 6.62735 2.85685 7.40463 2.8706 8.1874C2.89785 9.73806 3.64277 11.2174 4.94444 12.3058C6.24611 13.3942 8.00004 14.0043 9.82731 14.0043C11.6546 14.0043 13.4085 13.3942 14.7102 12.3058C16.0119 11.2174 16.7568 9.73806 16.784 8.1874Z" fill="#777171"/>
</svg>
