<svg width="17" height="11" viewBox="0 0 17 11" fill="none" xmlns="http://www.w3.org/2000/svg">
<path d="M0.850626 11.0001H16.1511C16.306 10.9996 16.4578 10.9627 16.5902 10.8933C16.7227 10.8238 16.8307 10.7244 16.9027 10.6059C16.9746 10.4873 17.0078 10.354 16.9986 10.2204C16.9895 10.0867 16.9383 9.95778 16.8506 9.8474L9.20041 0.297033C8.88336 -0.0989383 8.12003 -0.0989383 7.80212 0.297033L0.151906 9.8474C0.0633545 9.95755 0.011426 10.0866 0.00176207 10.2204C-0.00790182 10.3543 0.0250686 10.4879 0.0970912 10.6067C0.169114 10.7255 0.277434 10.825 0.410283 10.8944C0.543132 10.9637 0.695428 11.0003 0.850626 11.0001Z" fill="black" fill-opacity="0.4"/>
</svg>
