<svg width="17" height="15" viewBox="0 0 17 15" fill="none" xmlns="http://www.w3.org/2000/svg">
<path d="M0.850512 14.3957H16.1509C16.3059 14.3951 16.4577 14.3493 16.5901 14.263C16.7226 14.1768 16.8306 14.0534 16.9025 13.9062C16.9745 13.759 17.0077 13.5935 16.9985 13.4275C16.9893 13.2616 16.9382 13.1014 16.8505 12.9643L9.2003 1.1051C8.88324 0.613403 8.11992 0.613403 7.80201 1.1051L0.151792 12.9643C0.0632403 13.1011 0.0113118 13.2613 0.00164787 13.4276C-0.00801603 13.5938 0.0249544 13.7597 0.096977 13.9073C0.169 14.0548 0.27732 14.1783 0.410169 14.2644C0.543017 14.3505 0.695314 14.3959 0.850512 14.3957Z" fill="black" fill-opacity="0.4"/>
</svg>
