<svg width="17" height="15" viewBox="0 0 17 15" fill="none" xmlns="http://www.w3.org/2000/svg">
<path d="M16.1494 0.362566L0.848939 0.362565C0.69403 0.363086 0.542186 0.408939 0.409751 0.495186C0.277318 0.581433 0.169309 0.70481 0.0973503 0.852034C0.0253936 0.999259 -0.00778855 1.16476 0.00137816 1.33072C0.010543 1.49668 0.0617095 1.65681 0.149369 1.79388L7.79959 13.6531C8.11664 14.1448 8.87997 14.1448 9.19788 13.6531L16.8481 1.79389C16.9366 1.6571 16.9886 1.49689 16.9982 1.33065C17.0079 1.16441 16.9749 0.998515 16.9029 0.850978C16.8309 0.703441 16.7226 0.579906 16.5897 0.493799C16.4569 0.407692 16.3046 0.362304 16.1494 0.362566Z" fill="black" fill-opacity="0.4"/>
</svg>
