<svg width="14" height="17" viewBox="0 0 14 17" fill="none" xmlns="http://www.w3.org/2000/svg">
<path fill-rule="evenodd" clip-rule="evenodd" d="M0.875 15.2535H13.125C13.3571 15.2535 13.5796 15.3411 13.7437 15.4969C13.9078 15.6528 14 15.8642 14 16.0846C14 16.305 13.9078 16.5164 13.7437 16.6722C13.5796 16.8281 13.3571 16.9156 13.125 16.9156H0.875C0.642936 16.9156 0.420376 16.8281 0.256282 16.6722C0.0921874 16.5164 0 16.305 0 16.0846C0 15.8642 0.0921874 15.6528 0.256282 15.4969C0.420376 15.3411 0.642936 15.2535 0.875 15.2535ZM0 11.0984L8.75 2.78802L11.375 5.28113L2.625 13.5915H0V11.0984ZM9.625 1.95699L11.375 0.294922L14 2.78802L12.2491 4.45092L9.625 1.95699Z" fill="white"/>
</svg>
