<svg width="24" height="21" viewBox="0 0 24 21" fill="none" xmlns="http://www.w3.org/2000/svg">
<path d="M22.7991 -9.92712e-05L1.1985 -0.000100874C0.979807 0.000700196 0.76544 0.0711939 0.578474 0.203791C0.391508 0.336388 0.239025 0.526068 0.137438 0.752413C0.0358507 0.97876 -0.0109938 1.2332 0.00194751 1.48835C0.0148869 1.7435 0.0871201 1.98969 0.210875 2.20042L11.0112 20.4329C11.4588 21.1889 12.5364 21.1889 12.9852 20.4329L23.7855 2.20042C23.9106 1.99013 23.9839 1.74381 23.9975 1.48824C24.0112 1.23267 23.9646 0.977613 23.8629 0.75079C23.7613 0.523964 23.6083 0.33404 23.4208 0.201658C23.2332 0.0692768 23.0182 -0.000503613 22.7991 -9.92712e-05Z" fill="black" fill-opacity="0.4"/>
</svg>
