<svg width="22" height="19" viewBox="0 0 22 19" fill="none" xmlns="http://www.w3.org/2000/svg">
<path d="M14.9681 14.0949C13.1036 15.3232 10.7577 15.9023 8.40796 15.7143C6.05818 15.5263 3.88111 14.5854 2.31992 13.0831C0.758724 11.5808 -0.0692484 9.62999 0.00454003 7.62783C0.0783285 5.62566 1.04833 3.72261 2.7171 2.30605C4.38616 0.889737 6.62842 0.0664788 8.98747 0.0038532C11.3465 -0.0587724 13.645 0.643942 15.4151 1.96896C17.1852 3.29397 18.2938 5.14169 18.5153 7.13599C18.7368 9.13029 18.0545 11.1213 16.6073 12.7037L21.3085 16.6937C21.4612 16.814 21.5728 16.967 21.6316 17.1367C21.6904 17.3063 21.6942 17.4863 21.6426 17.6576C21.5909 17.8289 21.4858 17.9852 21.3383 18.1101C21.1908 18.235 21.0064 18.3238 20.8044 18.3671C20.6028 18.4108 20.391 18.4077 20.1913 18.3581C19.9916 18.3084 19.8113 18.2141 19.6693 18.0849L14.9681 14.0949ZM16.2362 7.87367C16.2499 7.09091 16.0801 6.31363 15.7367 5.58706C15.3933 4.86049 14.883 4.19914 14.2357 3.64146C13.5883 3.08379 12.8168 2.64093 11.9659 2.33865C11.115 2.03637 10.2019 1.8807 9.27946 1.8807C8.35706 1.8807 7.44387 2.03637 6.59301 2.33865C5.74214 2.64093 4.9706 3.08379 4.32324 3.64146C3.67589 4.19914 3.16565 4.86049 2.82222 5.58706C2.47878 6.31363 2.309 7.09091 2.32275 7.87367C2.34999 9.42434 3.09492 10.9037 4.39659 11.9921C5.69826 13.0805 7.45219 13.6906 9.27946 13.6906C11.1067 13.6906 12.8607 13.0805 14.1623 11.9921C15.464 10.9037 16.2089 9.42434 16.2362 7.87367Z" fill="#777171"/>
</svg>
