<svg width="31" height="15" viewBox="0 0 31 15" fill="none" xmlns="http://www.w3.org/2000/svg">
<path d="M13.7438 14.6003C13.3286 14.8562 12.7654 15 12.1783 15C11.5911 15 11.028 14.8562 10.6128 14.6003L0.648323 8.45695C0.233202 8.20094 0 7.85376 0 7.49176C0 7.12976 0.233202 6.78258 0.648323 6.52657L10.6128 0.383225C11.0304 0.134545 11.5897 -0.00305748 12.1703 5.24521e-05C12.7509 0.00316334 13.3063 0.146738 13.7168 0.399855C14.1274 0.652972 14.3603 0.995378 14.3653 1.35333C14.3704 1.71127 14.1472 2.05612 13.7438 2.3136L7.74965 6.12657H28.7857C29.373 6.12657 29.9362 6.2704 30.3514 6.52643C30.7667 6.78245 31 7.12969 31 7.49176C31 7.85383 30.7667 8.20107 30.3514 8.45709C29.9362 8.71311 29.373 8.85695 28.7857 8.85695H7.74965L13.7438 12.6699C14.1589 12.9259 14.3921 13.2731 14.3921 13.6351C14.3921 13.9971 14.1589 14.3443 13.7438 14.6003Z" fill="black"/>
</svg>
