<svg width="21" height="19" viewBox="0 0 21 19" fill="none" xmlns="http://www.w3.org/2000/svg">
<path d="M18.5769 2.47826H15.7783L14.4022 0.367609C14.3284 0.254591 14.2286 0.161916 14.1115 0.0977938C13.9944 0.0336715 13.8636 8.15812e-05 13.7308 0H7.26923C7.13639 8.15812e-05 7.00563 0.0336715 6.88851 0.0977938C6.7714 0.161916 6.67156 0.254591 6.59784 0.367609L5.22072 2.47826H2.42308C1.78044 2.47826 1.16412 2.73936 0.709703 3.20413C0.255288 3.66889 0 4.29925 0 4.95652V16.5217C0 17.179 0.255288 17.8094 0.709703 18.2741C1.16412 18.7389 1.78044 19 2.42308 19H18.5769C19.2196 19 19.8359 18.7389 20.2903 18.2741C20.7447 17.8094 21 17.179 21 16.5217V4.95652C21 4.29925 20.7447 3.66889 20.2903 3.20413C19.8359 2.73936 19.2196 2.47826 18.5769 2.47826ZM19.3846 16.5217C19.3846 16.7408 19.2995 16.951 19.148 17.1059C18.9966 17.2608 18.7911 17.3478 18.5769 17.3478H2.42308C2.20886 17.3478 2.00342 17.2608 1.85195 17.1059C1.70048 16.951 1.61538 16.7408 1.61538 16.5217V4.95652C1.61538 4.73743 1.70048 4.52731 1.85195 4.37239C2.00342 4.21747 2.20886 4.13043 2.42308 4.13043H5.65385C5.78685 4.13052 5.91783 4.09701 6.03513 4.03288C6.15243 3.96876 6.25243 3.87599 6.32625 3.76283L7.70135 1.65217H13.2976L14.6737 3.76283C14.7476 3.87599 14.8476 3.96876 14.9649 4.03288C15.0822 4.09701 15.2131 4.13052 15.3462 4.13043H18.5769C18.7911 4.13043 18.9966 4.21747 19.148 4.37239C19.2995 4.52731 19.3846 4.73743 19.3846 4.95652V16.5217ZM10.5 5.78261C9.62139 5.78261 8.76252 6.04908 8.03199 6.54832C7.30145 7.04757 6.73207 7.75716 6.39584 8.58737C6.05962 9.41758 5.97164 10.3311 6.14305 11.2125C6.31446 12.0938 6.73755 12.9034 7.35881 13.5388C7.98008 14.1742 8.77162 14.607 9.63335 14.7823C10.4951 14.9576 11.3883 14.8676 12.2 14.5237C13.0117 14.1798 13.7055 13.5975 14.1936 12.8503C14.6818 12.1031 14.9423 11.2247 14.9423 10.3261C14.941 9.1215 14.4725 7.96664 13.6397 7.11487C12.8069 6.2631 11.6778 5.78398 10.5 5.78261ZM10.5 13.2174C9.94089 13.2174 9.39433 13.0478 8.92945 12.7301C8.46456 12.4124 8.10223 11.9609 7.88826 11.4325C7.6743 10.9042 7.61832 10.3229 7.7274 9.76202C7.83647 9.20116 8.10571 8.68598 8.50106 8.28163C8.89642 7.87727 9.40012 7.6019 9.94849 7.49034C10.4969 7.37878 11.0653 7.43603 11.5818 7.65487C12.0984 7.87371 12.5399 8.24429 12.8505 8.71976C13.1611 9.19524 13.3269 9.75424 13.3269 10.3261C13.3269 11.0929 13.0291 11.8283 12.4989 12.3705C11.9688 12.9128 11.2497 13.2174 10.5 13.2174Z" fill="black"/>
</svg>
