<svg width="14" height="18" viewBox="0 0 14 18" fill="none" xmlns="http://www.w3.org/2000/svg">
<path fill-rule="evenodd" clip-rule="evenodd" d="M0.875 16.2H13.125C13.3571 16.2 13.5796 16.2948 13.7437 16.4636C13.9078 16.6324 14 16.8613 14 17.1C14 17.3387 13.9078 17.5676 13.7437 17.7364C13.5796 17.9052 13.3571 18 13.125 18H0.875C0.642936 18 0.420376 17.9052 0.256282 17.7364C0.0921874 17.5676 0 17.3387 0 17.1C0 16.8613 0.0921874 16.6324 0.256282 16.4636C0.420376 16.2948 0.642936 16.2 0.875 16.2ZM0 11.7L8.75 2.7L11.375 5.4L2.625 14.4H0V11.7ZM9.625 1.8L11.375 0L14 2.7L12.2491 4.5009L9.625 1.8Z" fill="white"/>
</svg>
