<svg width="17" height="13" viewBox="0 0 17 13" fill="none" xmlns="http://www.w3.org/2000/svg">
<path d="M0.850512 12.4113H16.1509C16.3059 12.4108 16.4577 12.3718 16.5901 12.2985C16.7226 12.2251 16.8306 12.1202 16.9025 11.995C16.9745 11.8698 17.0077 11.729 16.9985 11.5879C16.9893 11.4467 16.9382 11.3105 16.8505 11.194L9.2003 1.10807C8.88324 0.68989 8.11992 0.68989 7.80201 1.10807L0.151792 11.194C0.0632403 11.3103 0.0113118 11.4466 0.00164787 11.5879C-0.00801603 11.7293 0.0249544 11.8704 0.096977 11.9959C0.169 12.1214 0.27732 12.2264 0.410169 12.2996C0.543017 12.3729 0.695314 12.4115 0.850512 12.4113Z" fill="black" fill-opacity="0.4"/>
</svg>
