<svg width="16" height="18" viewBox="0 0 16 18" fill="none" xmlns="http://www.w3.org/2000/svg">
<path fill-rule="evenodd" clip-rule="evenodd" d="M1.39469 15.6857H14.2894C14.5337 15.6857 14.768 15.7738 14.9407 15.9305C15.1134 16.0872 15.2105 16.2998 15.2105 16.5215C15.2105 16.7431 15.1134 16.9557 14.9407 17.1124C14.768 17.2691 14.5337 17.3572 14.2894 17.3572H1.39469C1.15041 17.3572 0.916134 17.2691 0.743403 17.1124C0.570672 16.9557 0.473633 16.7431 0.473633 16.5215C0.473633 16.2998 0.570672 16.0872 0.743403 15.9305C0.916134 15.7738 1.15041 15.6857 1.39469 15.6857ZM0.473633 11.5072L9.68416 3.15003L12.4473 5.65717L3.23679 14.0143H0.473633V11.5072ZM10.6052 2.31431L12.4473 0.642883L15.2105 3.15003L13.3674 4.82229L10.6052 2.31431Z" fill="white"/>
</svg>
