<svg width="13" height="8" viewBox="0 0 13 8" fill="none" xmlns="http://www.w3.org/2000/svg">
<path d="M12.3495 -3.8147e-05H0.649189C0.530729 0.000266552 0.414613 0.027122 0.31334 0.0776348C0.212067 0.128148 0.129472 0.200407 0.0744459 0.286634C0.0194189 0.372861 -0.00595455 0.469792 0.001054 0.56699C0.00806351 0.664189 0.0471899 0.757977 0.114224 0.838256L5.96439 7.78398C6.20685 8.07196 6.79056 8.07196 7.03367 7.78398L12.8838 0.838256C12.9516 0.758144 12.9913 0.664309 12.9987 0.566948C13.006 0.469588 12.9808 0.372424 12.9258 0.286015C12.8707 0.199605 12.7878 0.127253 12.6863 0.0768218C12.5847 0.0263906 12.4682 -0.000192642 12.3495 -3.8147e-05Z" fill="black" fill-opacity="0.4"/>
</svg>
