<svg width="17" height="11" viewBox="0 0 17 11" fill="none" xmlns="http://www.w3.org/2000/svg">
<path d="M16.1494 -5.25152e-05L0.848939 -5.36505e-05C0.69403 0.000365955 0.542186 0.0372913 0.409751 0.106747C0.277318 0.176202 0.169309 0.275559 0.0973503 0.394121C0.0253936 0.512683 -0.00778855 0.645962 0.00137816 0.77961C0.010543 0.913259 0.0617095 1.04222 0.149369 1.1526L7.79959 10.703C8.11664 11.0989 8.87997 11.0989 9.19788 10.703L16.8481 1.1526C16.9366 1.04245 16.9886 0.913425 16.9982 0.779554C17.0079 0.645684 16.9749 0.512083 16.9029 0.39327C16.8309 0.274457 16.7226 0.174973 16.5897 0.10563C16.4569 0.0362873 16.3046 -0.000264219 16.1494 -5.25152e-05Z" fill="black" fill-opacity="0.4"/>
</svg>
