<svg width="23" height="18" viewBox="0 0 23 18" fill="none" xmlns="http://www.w3.org/2000/svg">
<path d="M15.3667 13.4696C13.4526 14.6434 11.0443 15.1968 8.6319 15.0172C6.21953 14.8375 3.98448 13.9383 2.38171 12.5027C0.778932 11.067 -0.0710928 9.20278 0.00466095 7.28944C0.0804147 5.37609 1.07625 3.55747 2.78947 2.20375C4.50298 0.850266 6.80497 0.0635296 9.22685 0.00368227C11.6487 -0.0561651 14.0084 0.615376 15.8257 1.88161C17.6429 3.14784 18.7811 4.91359 19.0085 6.81942C19.2358 8.72525 18.5354 10.6279 17.0496 12.1401L21.8761 15.9531C22.0328 16.0681 22.1474 16.2143 22.2077 16.3765C22.2681 16.5386 22.272 16.7105 22.219 16.8743C22.166 17.038 22.0581 17.1874 21.9067 17.3067C21.7552 17.426 21.5659 17.5109 21.3585 17.5523C21.1515 17.5941 20.9341 17.5911 20.729 17.5436C20.524 17.4962 20.3389 17.406 20.1932 17.2826L15.3667 13.4696ZM16.6686 7.52438C16.6827 6.77634 16.5084 6.03354 16.1558 5.33921C15.8033 4.64487 15.2794 4.01285 14.6148 3.47992C13.9502 2.94698 13.1581 2.52377 12.2846 2.2349C11.4111 1.94603 10.4736 1.79727 9.52661 1.79727C8.57965 1.79727 7.64213 1.94603 6.76861 2.2349C5.89508 2.52377 5.10298 2.94698 4.43839 3.47992C3.77379 4.01285 3.24997 4.64487 2.89739 5.33921C2.5448 6.03354 2.3705 6.77634 2.38462 7.52438C2.41259 9.00626 3.17735 10.42 4.51369 11.4601C5.85003 12.5002 7.65067 13.0832 9.52661 13.0832C11.4026 13.0832 13.2032 12.5002 14.5395 11.4601C15.8759 10.42 16.6406 9.00626 16.6686 7.52438Z" fill="white"/>
</svg>
