<svg width="13" height="8" viewBox="0 0 13 8" fill="none" xmlns="http://www.w3.org/2000/svg">
<path d="M0.650479 8.00004H12.3508C12.4693 7.99973 12.5854 7.97288 12.6867 7.92237C12.7879 7.87185 12.8705 7.79959 12.9256 7.71337C12.9806 7.62714 13.006 7.53021 12.9989 7.43301C12.9919 7.33581 12.9528 7.24202 12.8858 7.16174L7.03561 0.216024C6.79315 -0.0719552 6.20944 -0.0719552 5.96633 0.216024L0.116163 7.16174C0.0484476 7.24186 0.00873752 7.33569 0.00134748 7.43305C-0.00604256 7.53041 0.0191701 7.62758 0.0742462 7.71399C0.129322 7.8004 0.212155 7.87275 0.313746 7.92318C0.415336 7.97361 0.531798 8.00019 0.650479 8.00004Z" fill="black" fill-opacity="0.4"/>
</svg>
