<svg width="9" height="18" viewBox="0 0 9 18" fill="none" xmlns="http://www.w3.org/2000/svg">
<path fill-rule="evenodd" clip-rule="evenodd" d="M0.989025 15.6788H8.09515C8.22977 15.6788 8.35887 15.7687 8.45406 15.9286C8.54925 16.0885 8.60273 16.3054 8.60273 16.5315C8.60273 16.7577 8.54925 16.9746 8.45406 17.1345C8.35887 17.2944 8.22977 17.3843 8.09515 17.3843H0.989025C0.854407 17.3843 0.725302 17.2944 0.630112 17.1345C0.534922 16.9746 0.481445 16.7577 0.481445 16.5315C0.481445 16.3054 0.534922 16.0885 0.630112 15.9286C0.725302 15.7687 0.854407 15.6788 0.989025 15.6788ZM0.481445 11.4152L5.55725 2.888L7.07999 5.44616L2.00419 13.9734H0.481445V11.4152ZM6.06483 2.03528L7.07999 0.329834L8.60273 2.888L7.58706 4.59429L6.06483 2.03528Z" fill="white"/>
</svg>
