<svg width="17" height="13" viewBox="0 0 17 13" fill="none" xmlns="http://www.w3.org/2000/svg">
<path d="M16.1494 0.635564L0.848939 0.635563C0.69403 0.636006 0.542186 0.675003 0.409751 0.748353C0.277318 0.821703 0.169309 0.926631 0.0973503 1.05184C0.0253936 1.17705 -0.00778855 1.3178 0.00137816 1.45895C0.010543 1.60009 0.0617095 1.73628 0.149369 1.85285L7.79959 11.9388C8.11664 12.3569 8.87997 12.3569 9.19788 11.9388L16.8481 1.85285C16.9366 1.73652 16.9886 1.60026 16.9982 1.45889C17.0079 1.31751 16.9749 1.17642 16.9029 1.05094C16.8309 0.925467 16.7226 0.820404 16.5897 0.747173C16.4569 0.673942 16.3046 0.635341 16.1494 0.635564Z" fill="black" fill-opacity="0.4"/>
</svg>
