<svg width="15" height="30" viewBox="0 0 15 30" fill="none" xmlns="http://www.w3.org/2000/svg">
<path fill-rule="evenodd" clip-rule="evenodd" d="M1.13484 26.8286H13.7072C13.9454 26.8286 14.1738 26.9844 14.3422 27.2617C14.5106 27.539 14.6052 27.9151 14.6052 28.3072C14.6052 28.6994 14.5106 29.0754 14.3422 29.3527C14.1738 29.63 13.9454 29.7858 13.7072 29.7858H1.13484C0.896671 29.7858 0.668255 29.63 0.499842 29.3527C0.33143 29.0754 0.236816 28.6994 0.236816 28.3072C0.236816 27.9151 0.33143 27.539 0.499842 27.2617C0.668255 26.9844 0.896671 26.8286 1.13484 26.8286ZM0.236816 19.4358L9.21708 4.65007L11.9112 9.08578L2.9309 23.8715H0.236816V19.4358ZM10.1151 3.1715L11.9112 0.214355L14.6052 4.65007L12.8083 7.60869L10.1151 3.1715Z" fill="white"/>
</svg>
