<svg width="35" height="32" viewBox="0 0 35 32" fill="none" xmlns="http://www.w3.org/2000/svg">
<path d="M31.0561 4.26158H26.5007L24.2608 0.718008C24.1408 0.528263 23.9783 0.372671 23.7877 0.265016C23.5971 0.157361 23.3842 0.100967 23.168 0.10083H12.6505C12.4343 0.100967 12.2215 0.157361 12.0308 0.265016C11.8402 0.372671 11.6777 0.528263 11.5577 0.718008L9.31616 4.26158H4.76242C3.71639 4.26158 2.7132 4.69994 1.97355 5.48024C1.23389 6.26053 0.818359 7.31883 0.818359 8.42233V27.8392C0.818359 28.9427 1.23389 30.001 1.97355 30.7813C2.7132 31.5616 3.71639 31.9999 4.76242 31.9999H31.0561C32.1022 31.9999 33.1053 31.5616 33.845 30.7813C34.5846 30.001 35.0002 28.9427 35.0002 27.8392V8.42233C35.0002 7.31883 34.5846 6.26053 33.845 5.48024C33.1053 4.69994 32.1022 4.26158 31.0561 4.26158ZM32.3708 27.8392C32.3708 28.207 32.2323 28.5598 31.9857 28.8199C31.7392 29.08 31.4048 29.2261 31.0561 29.2261H4.76242C4.41374 29.2261 4.07934 29.08 3.83279 28.8199C3.58624 28.5598 3.44773 28.207 3.44773 27.8392V8.42233C3.44773 8.0545 3.58624 7.70173 3.83279 7.44163C4.07934 7.18153 4.41374 7.03541 4.76242 7.03541H10.0212C10.2377 7.03556 10.4508 6.9793 10.6418 6.87164C10.8327 6.76397 10.9955 6.60822 11.1156 6.41824L13.3539 2.87466H22.463L24.7029 6.41824C24.8231 6.60822 24.9858 6.76397 25.1768 6.87164C25.3677 6.9793 25.5809 7.03556 25.7974 7.03541H31.0561C31.4048 7.03541 31.7392 7.18153 31.9857 7.44163C32.2323 7.70173 32.3708 8.0545 32.3708 8.42233V27.8392ZM17.9093 9.80925C16.4792 9.80925 15.0812 10.2566 13.8921 11.0948C12.703 11.933 11.7762 13.1243 11.2289 14.5182C10.6816 15.912 10.5384 17.4457 10.8174 18.9254C11.0964 20.4051 11.7851 21.7643 12.7963 22.8311C13.8076 23.8979 15.096 24.6244 16.4986 24.9188C17.9012 25.2131 19.3551 25.062 20.6764 24.4847C21.9976 23.9073 23.1269 22.9296 23.9214 21.6752C24.716 20.4208 25.14 18.946 25.14 17.4373C25.1379 15.4149 24.3754 13.476 23.0198 12.046C21.6642 10.6159 19.8263 9.81154 17.9093 9.80925ZM17.9093 22.2915C16.9992 22.2915 16.1096 22.0068 15.3529 21.4734C14.5962 20.94 14.0064 20.1819 13.6581 19.2949C13.3099 18.4079 13.2187 17.4319 13.3963 16.4903C13.5738 15.5487 14.0121 14.6837 14.6556 14.0048C15.2991 13.326 16.119 12.8637 17.0116 12.6764C17.9042 12.4891 18.8294 12.5852 19.6701 12.9526C20.5109 13.32 21.2296 13.9422 21.7352 14.7404C22.2408 15.5387 22.5107 16.4772 22.5107 17.4373C22.5107 18.7247 22.0259 19.9594 21.163 20.8697C20.3 21.7801 19.1296 22.2915 17.9093 22.2915Z" fill="black"/>
</svg>
