<svg width="37" height="34" viewBox="0 0 37 34" fill="none" xmlns="http://www.w3.org/2000/svg">
<path d="M32.7729 5.20076H27.8904L25.4896 1.52165C25.361 1.32464 25.1868 1.1631 24.9825 1.05133C24.7782 0.939553 24.5501 0.881002 24.3183 0.880859H13.0456C12.8138 0.881002 12.5857 0.939553 12.3814 1.05133C12.1771 1.1631 12.0029 1.32464 11.8743 1.52165L9.47178 5.20076H4.59104C3.4699 5.20076 2.39468 5.65589 1.60191 6.46603C0.809142 7.27617 0.36377 8.37496 0.36377 9.52067V29.6802C0.36377 30.8259 0.809142 31.9247 1.60191 32.7349C2.39468 33.545 3.4699 34.0001 4.59104 34.0001H32.7729C33.894 34.0001 34.9692 33.545 35.762 32.7349C36.5548 31.9247 37.0001 30.8259 37.0001 29.6802V9.52067C37.0001 8.37496 36.5548 7.27617 35.762 6.46603C34.9692 5.65589 33.894 5.20076 32.7729 5.20076ZM34.1819 29.6802C34.1819 30.0621 34.0335 30.4284 33.7692 30.6984C33.505 30.9685 33.1466 31.1202 32.7729 31.1202H4.59104C4.21733 31.1202 3.85892 30.9685 3.59466 30.6984C3.33041 30.4284 3.18195 30.0621 3.18195 29.6802V9.52067C3.18195 9.13876 3.33041 8.7725 3.59466 8.50246C3.85892 8.23241 4.21733 8.0807 4.59104 8.0807H10.2274C10.4594 8.08085 10.6879 8.02244 10.8926 7.91066C11.0972 7.79887 11.2717 7.63717 11.4005 7.43991L13.7994 3.7608H23.5627L25.9634 7.43991C26.0922 7.63717 26.2667 7.79887 26.4713 7.91066C26.676 8.02244 26.9044 8.08085 27.1365 8.0807H32.7729C33.1466 8.0807 33.505 8.23241 33.7692 8.50246C34.0335 8.7725 34.1819 9.13876 34.1819 9.52067V29.6802ZM18.6819 10.9606C17.1491 10.9606 15.6508 11.4251 14.3763 12.2954C13.1018 13.1656 12.1085 14.4025 11.5219 15.8497C10.9353 17.2968 10.7818 18.8892 11.0809 20.4255C11.3799 21.9618 12.118 23.373 13.2019 24.4806C14.2857 25.5882 15.6666 26.3425 17.17 26.6481C18.6733 26.9537 20.2316 26.7969 21.6477 26.1974C23.0639 25.598 24.2743 24.5829 25.1258 23.2805C25.9774 21.9781 26.4319 20.4469 26.4319 18.8805C26.4296 16.7807 25.6124 14.7677 24.1594 13.2829C22.7065 11.7982 20.7367 10.963 18.6819 10.9606ZM18.6819 23.9203C17.7065 23.9203 16.753 23.6248 15.942 23.071C15.1309 22.5172 14.4988 21.7301 14.1255 20.8091C13.7523 19.8882 13.6546 18.8749 13.8449 17.8972C14.0352 16.9196 14.5049 16.0216 15.1946 15.3167C15.8844 14.6119 16.7631 14.1319 17.7198 13.9374C18.6765 13.7429 19.6681 13.8428 20.5693 14.2242C21.4704 14.6057 22.2407 15.2516 22.7826 16.0804C23.3245 16.9093 23.6138 17.8837 23.6138 18.8805C23.6138 20.2171 23.0942 21.499 22.1693 22.4442C21.2444 23.3894 19.9899 23.9203 18.6819 23.9203Z" fill="black"/>
</svg>
