<svg width="12" height="12" viewBox="0 0 12 12" fill="none" xmlns="http://www.w3.org/2000/svg">
<path d="M11.5123 1.50761L3.96727 11.1182C3.90096 11.2026 3.81107 11.25 3.71734 11.25C3.62362 11.25 3.53373 11.2026 3.46742 11.1182L0.166455 6.9136C0.103982 6.8282 0.0699717 6.71524 0.0715883 6.59853C0.0732049 6.48182 0.110323 6.37047 0.175122 6.28793C0.239921 6.20539 0.327343 6.15811 0.418968 6.15605C0.510594 6.15399 0.59927 6.19732 0.666315 6.27689L3.71734 10.1624L11.0125 0.870909C11.0795 0.791333 11.1682 0.748011 11.2598 0.75007C11.3514 0.752129 11.4389 0.799409 11.5037 0.881949C11.5685 0.964488 11.6056 1.07584 11.6072 1.19255C11.6088 1.30926 11.5748 1.42221 11.5123 1.50761Z" fill="white"/>
</svg>
