<svg width="17" height="13" viewBox="0 0 17 13" fill="none" xmlns="http://www.w3.org/2000/svg">
<path d="M16.1494 0.84113L0.848939 0.841129C0.69403 0.841572 0.542186 0.880569 0.409751 0.953919C0.277318 1.02727 0.169309 1.1322 0.0973503 1.25741C0.0253936 1.38262 -0.00778855 1.52337 0.00137816 1.66451C0.010543 1.80566 0.0617095 1.94184 0.149369 2.05842L7.79959 12.1443C8.11664 12.5625 8.87997 12.5625 9.19788 12.1443L16.8481 2.05842C16.9366 1.94209 16.9886 1.80583 16.9982 1.66445C17.0079 1.52308 16.9749 1.38198 16.9029 1.25651C16.8309 1.13103 16.7226 1.02597 16.5897 0.95274C16.4569 0.879508 16.3046 0.840907 16.1494 0.84113Z" fill="black" fill-opacity="0.4"/>
</svg>
