<svg width="17" height="12" viewBox="0 0 17 12" fill="none" xmlns="http://www.w3.org/2000/svg">
<path d="M0.850512 11.6168H16.1509C16.3059 11.6164 16.4577 11.5774 16.5901 11.504C16.7226 11.4307 16.8306 11.3258 16.9025 11.2005C16.9745 11.0753 17.0077 10.9346 16.9985 10.7934C16.9893 10.6523 16.9382 10.5161 16.8505 10.3995L9.2003 0.313631C8.88324 -0.104544 8.11992 -0.104544 7.80201 0.313631L0.151792 10.3995C0.0632403 10.5159 0.0113118 10.6521 0.00164787 10.7935C-0.00801603 10.9349 0.0249544 11.076 0.096977 11.2014C0.169 11.3269 0.27732 11.432 0.410169 11.5052C0.543017 11.5784 0.695314 11.617 0.850512 11.6168Z" fill="black" fill-opacity="0.4"/>
</svg>
